<svg width="38" height="34" viewBox="0 0 38 34" fill="none" xmlns="http://www.w3.org/2000/svg">
<path fill-rule="evenodd" clip-rule="evenodd" d="M9.01944 5.25854H32.7545C35.3745 5.25854 37.5056 7.38879 37.5056 10.0076V29.1086C37.5056 31.7274 35.3499 33.7547 32.7322 33.7547H9.01944C6.4018 33.7547 4.24609 31.6245 4.24609 29.0056V10.0076C4.24609 7.38879 6.4018 5.25854 9.01944 5.25854ZM30.334 13.5849C30.342 11.6205 28.7672 10.0204 26.8141 10.0085C24.8528 10.0046 23.2587 11.5979 23.251 13.5705C23.2511 15.5349 24.8323 17.1285 26.7854 17.1325C28.7385 17.1364 30.3261 15.5493 30.334 13.5849ZM8.98771 31.3804C7.67889 31.3804 6.6888 30.3157 6.6888 29.0063V23.9862L13.6533 17.7302C15.0659 16.4804 17.1989 16.5423 18.5375 17.8719L23.3601 22.6814L14.6603 31.3797L8.98771 31.3804ZM34.35 30.6855C34.7935 30.2402 35.0428 29.6359 35.043 29.0056V25.2825L31.6185 22.3593C30.2921 21.2462 28.3626 21.2514 27.0422 22.3717L18.0283 31.3798H32.6786C33.3053 31.3806 33.9065 31.1308 34.35 30.6855Z" fill="#00BCD4"/>
<path d="M30.0678 0H5.01129C2.24363 0 0 2.26323 0 5.05506V25.2753C0.001885 27.5803 1.54675 29.5932 3.75847 30.1724V9.47824C3.75847 6.33743 6.28256 3.7913 9.39618 3.7913H34.9225C34.3483 1.56026 32.3528 0.00190147 30.0678 0Z" fill="#00BCD4"/>
</svg>
