<svg width="622" height="203" viewBox="0 0 622 203" fill="none" xmlns="http://www.w3.org/2000/svg">
<path d="M78.4219 73H42.1875V69.3438C43.875 69.2188 45.8594 68.9219 48.1406 68.4531C50.4219 67.9531 51.5625 67.3438 51.5625 66.625C51.5625 66.375 51.5312 66.0938 51.4688 65.7812C51.4375 65.4688 51.3125 65.0469 51.0938 64.5156L45.4219 50.7344H22.4531C21.9219 52.0156 21.3281 53.5156 20.6719 55.2344C20.0469 56.9531 19.5 58.4844 19.0312 59.8281C18.4375 61.5781 18.0781 62.8438 17.9531 63.625C17.8594 64.4062 17.8125 64.9531 17.8125 65.2656C17.8125 66.2656 18.5625 67.125 20.0625 67.8438C21.5938 68.5312 24.125 69.0312 27.6562 69.3438V73H0.375V69.3438C1.40625 69.2812 2.5625 69.125 3.84375 68.875C5.15625 68.5938 6.1875 68.2188 6.9375 67.75C8.21875 67 9.29688 66.0781 10.1719 64.9844C11.0781 63.8906 11.8281 62.5938 12.4219 61.0938C16.0469 52.3125 19.6719 43.5156 23.2969 34.7031C26.9531 25.8906 30.9844 16.1719 35.3906 5.54688H44.7656C50.8906 20.6094 55.6875 32.5156 59.1562 41.2656C62.625 50.0156 65.5781 57.2656 68.0156 63.0156C68.4219 63.9531 68.9375 64.8125 69.5625 65.5938C70.1875 66.3438 71.0781 67.0625 72.2344 67.75C73.1094 68.25 74.125 68.625 75.2812 68.875C76.4375 69.125 77.4844 69.2812 78.4219 69.3438V73ZM43.5 46.0938L33.8438 22L24.3281 46.0938H43.5ZM125.25 35.0781C125.25 37.4531 124.516 39.5469 123.047 41.3594C121.578 43.1406 119.641 44.0312 117.234 44.0312C114.953 44.0312 113.016 43.4531 111.422 42.2969C109.859 41.1406 109.078 39.4375 109.078 37.1875C109.078 36.0938 109.156 35.25 109.312 34.6562C109.469 34.0312 109.609 33.4531 109.734 32.9219C108.297 32.9844 106.781 33.4844 105.188 34.4219C103.594 35.3594 102.188 36.6094 100.969 38.1719V63.9062C100.969 65 101.141 65.9062 101.484 66.625C101.828 67.3438 102.406 67.9062 103.219 68.3125C103.906 68.6562 105.016 68.9531 106.547 69.2031C108.109 69.4219 109.234 69.5469 109.922 69.5781V73H78.5625V69.5781C79.3438 69.5156 80.125 69.4375 80.9062 69.3438C81.7188 69.2188 82.4062 69.0625 82.9688 68.875C83.9688 68.5312 84.6562 68 85.0312 67.2812C85.4062 66.5625 85.5938 65.625 85.5938 64.4688V37.1875C85.5938 36.0625 85.3281 35.0625 84.7969 34.1875C84.2656 33.2812 83.625 32.5625 82.875 32.0312C82.3125 31.6562 81.5938 31.3438 80.7188 31.0938C79.875 30.8438 78.9375 30.6719 77.9062 30.5781V27.1562L100.266 25.9375L100.969 26.6406V33.4375H101.156C103.312 30.9375 105.594 28.9844 108 27.5781C110.438 26.1406 112.969 25.4219 115.594 25.4219C118.5 25.4219 120.828 26.3281 122.578 28.1406C124.359 29.9219 125.25 32.2344 125.25 35.0781ZM163.406 70.8438C161.406 71.7188 159.266 72.5 156.984 73.1875C154.703 73.9062 151.922 74.2656 148.641 74.2656C143.766 74.2656 140.141 73.0781 137.766 70.7031C135.422 68.3281 134.25 64.9375 134.25 60.5312V31.75H125.812V26.6875H134.438V12.4844H149.672V26.6875H162.797V31.75H149.766V57.4375C149.766 61.0938 150.266 63.6875 151.266 65.2188C152.297 66.75 154.125 67.5156 156.75 67.5156C157.594 67.5156 158.766 67.4531 160.266 67.3281C161.766 67.2031 162.812 67.0625 163.406 66.9062V70.8438ZM196.312 73H166.688V69.5781C167.5 69.5156 168.297 69.4375 169.078 69.3438C169.859 69.25 170.531 69.0938 171.094 68.875C172.094 68.5 172.797 67.9688 173.203 67.2812C173.609 66.5625 173.812 65.625 173.812 64.4688V37.1875C173.812 36.0938 173.562 35.1406 173.062 34.3281C172.562 33.4844 171.938 32.8125 171.188 32.3125C170.625 31.9375 169.766 31.5781 168.609 31.2344C167.484 30.8906 166.453 30.6719 165.516 30.5781V27.1562L188.484 25.9375L189.188 26.6406V63.8594C189.188 64.9531 189.422 65.8906 189.891 66.6719C190.359 67.4219 191.031 67.9844 191.906 68.3594C192.531 68.6406 193.219 68.8906 193.969 69.1094C194.719 69.3281 195.5 69.4844 196.312 69.5781V73ZM189.469 9.0625C189.469 11.4375 188.547 13.4688 186.703 15.1562C184.891 16.8125 182.734 17.6406 180.234 17.6406C177.703 17.6406 175.516 16.8125 173.672 15.1562C171.859 13.4688 170.953 11.4375 170.953 9.0625C170.953 6.6875 171.859 4.65625 173.672 2.96875C175.516 1.28125 177.703 0.4375 180.234 0.4375C182.766 0.4375 184.938 1.28125 186.75 2.96875C188.562 4.65625 189.469 6.6875 189.469 9.0625ZM222.328 74.5938C219.297 74.5938 216.328 74.1406 213.422 73.2344C210.547 72.3594 208.312 71.4219 206.719 70.4219L205.312 73.6094H201.656L201.047 56.125H204.469C204.938 57.5312 205.719 59.125 206.812 60.9062C207.906 62.6562 209.156 64.2344 210.562 65.6406C212.031 67.0469 213.703 68.2344 215.578 69.2031C217.484 70.1719 219.516 70.6562 221.672 70.6562C224.516 70.6562 226.625 70.1094 228 69.0156C229.406 67.8906 230.109 66.1719 230.109 63.8594C230.109 62.6094 229.797 61.5781 229.172 60.7656C228.547 59.9531 227.688 59.25 226.594 58.6562C225.375 58.0312 224.031 57.5 222.562 57.0625C221.125 56.625 219.344 56.0938 217.219 55.4688C215.094 54.8438 213.266 54.2188 211.734 53.5938C210.234 52.9375 208.672 51.9219 207.047 50.5469C205.641 49.3281 204.516 47.8594 203.672 46.1406C202.828 44.4219 202.406 42.375 202.406 40C202.406 35.5938 204.25 32.0312 207.938 29.3125C211.656 26.5938 216.516 25.2344 222.516 25.2344C225.359 25.2344 227.969 25.5312 230.344 26.125C232.75 26.6875 234.766 27.3125 236.391 28L237.375 25.2344H240.938L241.688 41.2188H238.359C237.266 37.9688 235.391 35.1719 232.734 32.8281C230.078 30.4531 227.219 29.2656 224.156 29.2656C221.75 29.2656 219.859 29.7656 218.484 30.7656C217.109 31.7656 216.422 33.1562 216.422 34.9375C216.422 37.3125 217.422 39.0312 219.422 40.0938C221.453 41.1562 224.281 42.1562 227.906 43.0938C233.5 44.5312 237.594 46.5 240.188 49C242.781 51.4688 244.078 54.625 244.078 58.4688C244.078 63.5938 242.062 67.5625 238.031 70.375C234.031 73.1875 228.797 74.5938 222.328 74.5938ZM303.422 72.0156C302.047 72.6094 300.422 73.1562 298.547 73.6562C296.672 74.1562 294.688 74.4062 292.594 74.4062C288.75 74.4062 285.922 73.8438 284.109 72.7188C282.297 71.5625 281.062 69.9219 280.406 67.7969H280.125C279.062 68.8594 278.031 69.7656 277.031 70.5156C276.062 71.2656 275.016 71.9062 273.891 72.4375C272.422 73.125 271 73.625 269.625 73.9375C268.281 74.2812 266.391 74.4531 263.953 74.4531C260.328 74.4531 257.234 73.3906 254.672 71.2656C252.109 69.1094 250.828 66.2656 250.828 62.7344C250.828 60.7031 251.109 58.9844 251.672 57.5781C252.234 56.1406 253.031 54.875 254.062 53.7812C255 52.7812 256.078 51.9531 257.297 51.2969C258.547 50.6406 259.906 50.0312 261.375 49.4688C264.188 48.4375 267.562 47.375 271.5 46.2812C275.438 45.1562 278.312 44.1562 280.125 43.2812V38.7812C280.125 38 280.062 36.9688 279.938 35.6875C279.812 34.4062 279.547 33.3281 279.141 32.4531C278.703 31.4531 278.016 30.6094 277.078 29.9219C276.141 29.2344 274.906 28.8906 273.375 28.8906C272 28.8906 270.844 29.0938 269.906 29.5C269 29.875 268.266 30.2656 267.703 30.6719C267.797 31.2969 268.062 32.25 268.5 33.5312C268.938 34.8125 269.156 36.0469 269.156 37.2344C269.156 37.7656 269.016 38.4375 268.734 39.25C268.453 40.0312 268.047 40.6562 267.516 41.125C266.797 41.75 265.984 42.2344 265.078 42.5781C264.203 42.9219 262.844 43.0938 261 43.0938C258.375 43.0938 256.391 42.4688 255.047 41.2188C253.703 39.9375 253.031 38.2812 253.031 36.25C253.031 34.5 253.719 32.9375 255.094 31.5625C256.5 30.1562 258.203 29 260.203 28.0938C262.172 27.1562 264.438 26.4375 267 25.9375C269.562 25.4062 271.938 25.1406 274.125 25.1406C277.156 25.1406 279.938 25.3281 282.469 25.7031C285 26.0469 287.281 26.7812 289.312 27.9062C291.25 29 292.781 30.5938 293.906 32.6875C295.062 34.75 295.641 37.4531 295.641 40.7969C295.641 44.3281 295.562 48.5156 295.406 53.3594C295.281 58.2031 295.219 61.3906 295.219 62.9219C295.219 64.3281 295.422 65.4375 295.828 66.25C296.266 67.0625 296.922 67.6719 297.797 68.0781C298.328 68.3281 299.156 68.4844 300.281 68.5469C301.438 68.5781 302.484 68.5938 303.422 68.5938V72.0156ZM280.125 47.5938C278.375 48.1875 276.641 48.875 274.922 49.6562C273.203 50.4062 271.797 51.2031 270.703 52.0469C269.547 52.9219 268.641 54.0469 267.984 55.4219C267.328 56.7656 267 58.3594 267 60.2031C267 62.6406 267.547 64.4062 268.641 65.5C269.766 66.5938 271.141 67.1406 272.766 67.1406C274.484 67.1406 275.891 66.7969 276.984 66.1094C278.109 65.3906 279.094 64.5156 279.938 63.4844L280.125 47.5938ZM368.906 73H340.688V69.5781C341.281 69.5156 342 69.4375 342.844 69.3438C343.688 69.25 344.328 69.0938 344.766 68.875C345.422 68.5312 345.891 68.0312 346.172 67.375C346.453 66.7188 346.594 65.75 346.594 64.4688V42.5312C346.594 39.3438 346 36.9531 344.812 35.3594C343.656 33.7344 341.938 32.9219 339.656 32.9219C338.406 32.9219 337.234 33.1094 336.141 33.4844C335.078 33.8594 334.031 34.4062 333 35.125C332.094 35.75 331.359 36.3906 330.797 37.0469C330.266 37.7031 329.812 38.2812 329.438 38.7812V63.9531C329.438 65.0469 329.594 65.9688 329.906 66.7188C330.219 67.4375 330.734 67.9844 331.453 68.3594C331.953 68.6406 332.578 68.8906 333.328 69.1094C334.078 69.3281 334.812 69.4844 335.531 69.5781V73H307.031V69.5781C307.812 69.5156 308.594 69.4375 309.375 69.3438C310.188 69.2188 310.875 69.0625 311.438 68.875C312.438 68.5312 313.125 68 313.5 67.2812C313.875 66.5625 314.062 65.625 314.062 64.4688V37.1875C314.062 36.2188 313.812 35.2656 313.312 34.3281C312.812 33.3906 312.156 32.625 311.344 32.0312C310.781 31.6562 310.062 31.3438 309.188 31.0938C308.344 30.8438 307.406 30.6719 306.375 30.5781V27.1562L328.734 25.9375L329.438 26.6406V33.4375H329.625C330.5 32.6562 331.562 31.7188 332.812 30.625C334.062 29.5312 335.219 28.6406 336.281 27.9531C337.438 27.2031 338.953 26.5625 340.828 26.0312C342.703 25.5 344.703 25.2344 346.828 25.2344C351.922 25.2344 355.734 26.6875 358.266 29.5938C360.828 32.4688 362.109 36.2969 362.109 41.0781V64.0469C362.109 65.2031 362.281 66.125 362.625 66.8125C362.969 67.5 363.609 68.0469 364.547 68.4531C365.047 68.6719 365.656 68.8906 366.375 69.1094C367.125 69.3281 367.969 69.4844 368.906 69.5781V73ZM408.703 74.7812C403.828 74.7812 399.266 74 395.016 72.4375C390.766 70.8438 387.062 68.5469 383.906 65.5469C380.812 62.6094 378.375 58.9844 376.594 54.6719C374.812 50.3281 373.922 45.5625 373.922 40.375C373.922 35.2188 374.812 30.4531 376.594 26.0781C378.406 21.6719 380.938 17.8594 384.188 14.6406C387.375 11.4844 391.203 9.04688 395.672 7.32812C400.141 5.57813 404.922 4.70312 410.016 4.70312C413.703 4.70312 417.062 5.15625 420.094 6.0625C423.125 6.9375 425.688 7.9375 427.781 9.0625L430.688 6.48438H434.766L435.188 30.7656H431.062C428.719 23.3594 425.906 17.9219 422.625 14.4531C419.344 10.9844 415.344 9.25 410.625 9.25C404.75 9.25 400.281 11.8437 397.219 17.0312C394.156 22.1875 392.625 29.4375 392.625 38.7812C392.625 44.0625 393.141 48.5781 394.172 52.3281C395.234 56.0469 396.609 59.0469 398.297 61.3281C400.109 63.7031 402.25 65.4531 404.719 66.5781C407.188 67.6719 409.922 68.2188 412.922 68.2188C417.297 68.2188 421.188 67.0312 424.594 64.6562C428.031 62.2812 431.156 58.6875 433.969 53.875L438 56.3125C436.656 59.0625 435.125 61.5312 433.406 63.7188C431.688 65.875 429.703 67.7344 427.453 69.2969C424.984 71.0156 422.25 72.3594 419.25 73.3281C416.281 74.2969 412.766 74.7812 408.703 74.7812ZM488.719 35.0781C488.719 37.4531 487.984 39.5469 486.516 41.3594C485.047 43.1406 483.109 44.0312 480.703 44.0312C478.422 44.0312 476.484 43.4531 474.891 42.2969C473.328 41.1406 472.547 39.4375 472.547 37.1875C472.547 36.0938 472.625 35.25 472.781 34.6562C472.938 34.0312 473.078 33.4531 473.203 32.9219C471.766 32.9844 470.25 33.4844 468.656 34.4219C467.062 35.3594 465.656 36.6094 464.438 38.1719V63.9062C464.438 65 464.609 65.9062 464.953 66.625C465.297 67.3438 465.875 67.9062 466.688 68.3125C467.375 68.6562 468.484 68.9531 470.016 69.2031C471.578 69.4219 472.703 69.5469 473.391 69.5781V73H442.031V69.5781C442.812 69.5156 443.594 69.4375 444.375 69.3438C445.188 69.2188 445.875 69.0625 446.438 68.875C447.438 68.5312 448.125 68 448.5 67.2812C448.875 66.5625 449.062 65.625 449.062 64.4688V37.1875C449.062 36.0625 448.797 35.0625 448.266 34.1875C447.734 33.2812 447.094 32.5625 446.344 32.0312C445.781 31.6562 445.062 31.3438 444.188 31.0938C443.344 30.8438 442.406 30.6719 441.375 30.5781V27.1562L463.734 25.9375L464.438 26.6406V33.4375H464.625C466.781 30.9375 469.062 28.9844 471.469 27.5781C473.906 26.1406 476.438 25.4219 479.062 25.4219C481.969 25.4219 484.297 26.3281 486.047 28.1406C487.828 29.9219 488.719 32.2344 488.719 35.0781ZM545.578 72.0156C544.203 72.6094 542.578 73.1562 540.703 73.6562C538.828 74.1562 536.844 74.4062 534.75 74.4062C530.906 74.4062 528.078 73.8438 526.266 72.7188C524.453 71.5625 523.219 69.9219 522.562 67.7969H522.281C521.219 68.8594 520.188 69.7656 519.188 70.5156C518.219 71.2656 517.172 71.9062 516.047 72.4375C514.578 73.125 513.156 73.625 511.781 73.9375C510.438 74.2812 508.547 74.4531 506.109 74.4531C502.484 74.4531 499.391 73.3906 496.828 71.2656C494.266 69.1094 492.984 66.2656 492.984 62.7344C492.984 60.7031 493.266 58.9844 493.828 57.5781C494.391 56.1406 495.188 54.875 496.219 53.7812C497.156 52.7812 498.234 51.9531 499.453 51.2969C500.703 50.6406 502.062 50.0312 503.531 49.4688C506.344 48.4375 509.719 47.375 513.656 46.2812C517.594 45.1562 520.469 44.1562 522.281 43.2812V38.7812C522.281 38 522.219 36.9688 522.094 35.6875C521.969 34.4062 521.703 33.3281 521.297 32.4531C520.859 31.4531 520.172 30.6094 519.234 29.9219C518.297 29.2344 517.062 28.8906 515.531 28.8906C514.156 28.8906 513 29.0938 512.062 29.5C511.156 29.875 510.422 30.2656 509.859 30.6719C509.953 31.2969 510.219 32.25 510.656 33.5312C511.094 34.8125 511.312 36.0469 511.312 37.2344C511.312 37.7656 511.172 38.4375 510.891 39.25C510.609 40.0312 510.203 40.6562 509.672 41.125C508.953 41.75 508.141 42.2344 507.234 42.5781C506.359 42.9219 505 43.0938 503.156 43.0938C500.531 43.0938 498.547 42.4688 497.203 41.2188C495.859 39.9375 495.188 38.2812 495.188 36.25C495.188 34.5 495.875 32.9375 497.25 31.5625C498.656 30.1562 500.359 29 502.359 28.0938C504.328 27.1562 506.594 26.4375 509.156 25.9375C511.719 25.4062 514.094 25.1406 516.281 25.1406C519.312 25.1406 522.094 25.3281 524.625 25.7031C527.156 26.0469 529.438 26.7812 531.469 27.9062C533.406 29 534.938 30.5938 536.062 32.6875C537.219 34.75 537.797 37.4531 537.797 40.7969C537.797 44.3281 537.719 48.5156 537.562 53.3594C537.438 58.2031 537.375 61.3906 537.375 62.9219C537.375 64.3281 537.578 65.4375 537.984 66.25C538.422 67.0625 539.078 67.6719 539.953 68.0781C540.484 68.3281 541.312 68.4844 542.438 68.5469C543.594 68.5781 544.641 68.5938 545.578 68.5938V72.0156ZM522.281 47.5938C520.531 48.1875 518.797 48.875 517.078 49.6562C515.359 50.4062 513.953 51.2031 512.859 52.0469C511.703 52.9219 510.797 54.0469 510.141 55.4219C509.484 56.7656 509.156 58.3594 509.156 60.2031C509.156 62.6406 509.703 64.4062 510.797 65.5C511.922 66.5938 513.297 67.1406 514.922 67.1406C516.641 67.1406 518.047 66.7969 519.141 66.1094C520.266 65.3906 521.25 64.5156 522.094 63.4844L522.281 47.5938ZM593.531 8.35938C593.531 9.14063 593.406 10 593.156 10.9375C592.906 11.875 592.5 12.6719 591.938 13.3281C591.281 14.1094 590.547 14.7031 589.734 15.1094C588.922 15.5156 587.703 15.7188 586.078 15.7188C583.609 15.7188 581.672 14.8594 580.266 13.1406C578.859 11.4219 577.359 8.5625 575.766 4.5625C574.516 5.09375 573.5 6.46875 572.719 8.6875C571.938 10.9062 571.547 15.6719 571.547 22.9844V26.6875H584.484V31.75H571.641V64.0469C571.641 65.2656 571.922 66.2188 572.484 66.9062C573.047 67.5625 573.781 68.0469 574.688 68.3594C575.438 68.6094 576.422 68.8594 577.641 69.1094C578.859 69.3281 579.953 69.4844 580.922 69.5781V73H549.281V69.5781C550.094 69.5156 550.875 69.4375 551.625 69.3438C552.406 69.25 553.094 69.0938 553.688 68.875C554.688 68.5 555.359 67.9688 555.703 67.2812C556.078 66.5625 556.266 65.625 556.266 64.4688V31.75H546.75V26.6875H556.266C556.266 23.3438 556.75 20.1094 557.719 16.9844C558.688 13.8281 560.188 11.0156 562.219 8.54688C564.188 6.10938 566.781 4.14062 570 2.64062C573.219 1.14062 577 0.390625 581.344 0.390625C585.219 0.390625 588.219 1.125 590.344 2.59375C592.469 4.0625 593.531 5.98437 593.531 8.35938ZM621.844 70.8438C619.844 71.7188 617.703 72.5 615.422 73.1875C613.141 73.9062 610.359 74.2656 607.078 74.2656C602.203 74.2656 598.578 73.0781 596.203 70.7031C593.859 68.3281 592.688 64.9375 592.688 60.5312V31.75H584.25V26.6875H592.875V12.4844H608.109V26.6875H621.234V31.75H608.203V57.4375C608.203 61.0938 608.703 63.6875 609.703 65.2188C610.734 66.75 612.562 67.5156 615.188 67.5156C616.031 67.5156 617.203 67.4531 618.703 67.3281C620.203 67.2031 621.25 67.0625 621.844 66.9062V70.8438Z" fill="black"/>
<path d="M97.6406 182H61.5938V178.344C62.6562 178.25 63.9531 178.094 65.4844 177.875C67.0469 177.656 68.1094 177.422 68.6719 177.172C69.8281 176.703 70.6562 176.062 71.1562 175.25C71.6562 174.438 71.9062 173.406 71.9062 172.156V122.469L49.0312 180.922H43.125C42.8438 179.891 42.1406 177.844 41.0156 174.781C39.9219 171.719 39.0312 169.266 38.3438 167.422L21.5156 121.719V162.172C21.5156 166.047 21.7656 169 22.2656 171.031C22.7969 173.031 23.6406 174.5 24.7969 175.438C25.5781 176.094 26.9688 176.719 28.9688 177.312C31 177.906 32.4219 178.25 33.2344 178.344V182H4.64062V178.344C5.42188 178.25 6.6875 178.047 8.4375 177.734C10.2188 177.391 11.6719 176.812 12.7969 176C14.0469 175.125 14.8906 173.656 15.3281 171.594C15.7656 169.5 15.9844 166.531 15.9844 162.688V129.734C15.9844 127.734 15.7344 126.078 15.2344 124.766C14.7344 123.422 13.9844 122.359 12.9844 121.578C11.7344 120.609 10.4531 119.984 9.14062 119.703C7.82812 119.422 6.5 119.234 5.15625 119.141V115.484H35.7656L52.1719 159.406L66 123.734C66.4688 122.422 66.9219 120.859 67.3594 119.047C67.7969 117.234 68.0312 116.047 68.0625 115.484H97.5469V119.141C96.5469 119.203 95.5 119.328 94.4062 119.516C93.3125 119.703 92.2656 119.953 91.2656 120.266C90.0469 120.672 89.2344 121.312 88.8281 122.188C88.4531 123.062 88.2656 124.031 88.2656 125.094V172.203C88.2656 173.328 88.4531 174.281 88.8281 175.062C89.2344 175.812 90.0469 176.469 91.2656 177.031C91.8906 177.312 92.9062 177.578 94.3125 177.828C95.75 178.078 96.8594 178.25 97.6406 178.344V182ZM157.547 181.016C156.172 181.609 154.547 182.156 152.672 182.656C150.797 183.156 148.812 183.406 146.719 183.406C142.875 183.406 140.047 182.844 138.234 181.719C136.422 180.562 135.188 178.922 134.531 176.797H134.25C133.188 177.859 132.156 178.766 131.156 179.516C130.188 180.266 129.141 180.906 128.016 181.438C126.547 182.125 125.125 182.625 123.75 182.938C122.406 183.281 120.516 183.453 118.078 183.453C114.453 183.453 111.359 182.391 108.797 180.266C106.234 178.109 104.953 175.266 104.953 171.734C104.953 169.703 105.234 167.984 105.797 166.578C106.359 165.141 107.156 163.875 108.188 162.781C109.125 161.781 110.203 160.953 111.422 160.297C112.672 159.641 114.031 159.031 115.5 158.469C118.312 157.438 121.688 156.375 125.625 155.281C129.562 154.156 132.438 153.156 134.25 152.281V147.781C134.25 147 134.188 145.969 134.062 144.688C133.938 143.406 133.672 142.328 133.266 141.453C132.828 140.453 132.141 139.609 131.203 138.922C130.266 138.234 129.031 137.891 127.5 137.891C126.125 137.891 124.969 138.094 124.031 138.5C123.125 138.875 122.391 139.266 121.828 139.672C121.922 140.297 122.188 141.25 122.625 142.531C123.062 143.812 123.281 145.047 123.281 146.234C123.281 146.766 123.141 147.438 122.859 148.25C122.578 149.031 122.172 149.656 121.641 150.125C120.922 150.75 120.109 151.234 119.203 151.578C118.328 151.922 116.969 152.094 115.125 152.094C112.5 152.094 110.516 151.469 109.172 150.219C107.828 148.938 107.156 147.281 107.156 145.25C107.156 143.5 107.844 141.938 109.219 140.562C110.625 139.156 112.328 138 114.328 137.094C116.297 136.156 118.562 135.438 121.125 134.938C123.688 134.406 126.062 134.141 128.25 134.141C131.281 134.141 134.062 134.328 136.594 134.703C139.125 135.047 141.406 135.781 143.438 136.906C145.375 138 146.906 139.594 148.031 141.688C149.188 143.75 149.766 146.453 149.766 149.797C149.766 153.328 149.688 157.516 149.531 162.359C149.406 167.203 149.344 170.391 149.344 171.922C149.344 173.328 149.547 174.438 149.953 175.25C150.391 176.062 151.047 176.672 151.922 177.078C152.453 177.328 153.281 177.484 154.406 177.547C155.562 177.578 156.609 177.594 157.547 177.594V181.016ZM134.25 156.594C132.5 157.188 130.766 157.875 129.047 158.656C127.328 159.406 125.922 160.203 124.828 161.047C123.672 161.922 122.766 163.047 122.109 164.422C121.453 165.766 121.125 167.359 121.125 169.203C121.125 171.641 121.672 173.406 122.766 174.5C123.891 175.594 125.266 176.141 126.891 176.141C128.609 176.141 130.016 175.797 131.109 175.109C132.234 174.391 133.219 173.516 134.062 172.484L134.25 156.594ZM207.844 144.078C207.844 146.453 207.109 148.547 205.641 150.359C204.172 152.141 202.234 153.031 199.828 153.031C197.547 153.031 195.609 152.453 194.016 151.297C192.453 150.141 191.672 148.438 191.672 146.188C191.672 145.094 191.75 144.25 191.906 143.656C192.062 143.031 192.203 142.453 192.328 141.922C190.891 141.984 189.375 142.484 187.781 143.422C186.188 144.359 184.781 145.609 183.562 147.172V172.906C183.562 174 183.734 174.906 184.078 175.625C184.422 176.344 185 176.906 185.812 177.312C186.5 177.656 187.609 177.953 189.141 178.203C190.703 178.422 191.828 178.547 192.516 178.578V182H161.156V178.578C161.938 178.516 162.719 178.438 163.5 178.344C164.312 178.219 165 178.062 165.562 177.875C166.562 177.531 167.25 177 167.625 176.281C168 175.562 168.188 174.625 168.188 173.469V146.188C168.188 145.062 167.922 144.062 167.391 143.188C166.859 142.281 166.219 141.562 165.469 141.031C164.906 140.656 164.188 140.344 163.312 140.094C162.469 139.844 161.531 139.672 160.5 139.578V136.156L182.859 134.938L183.562 135.641V142.438H183.75C185.906 139.938 188.188 137.984 190.594 136.578C193.031 135.141 195.562 134.422 198.188 134.422C201.094 134.422 203.422 135.328 205.172 137.141C206.953 138.922 207.844 141.234 207.844 144.078ZM271.266 182H249.188C246.469 177.219 243.984 173.172 241.734 169.859C239.484 166.516 237.359 163.422 235.359 160.578L232.547 162.969V173.188C232.547 174.312 232.703 175.234 233.016 175.953C233.359 176.672 234 177.203 234.938 177.547C235.5 177.797 236.156 178.016 236.906 178.203C237.656 178.391 238.406 178.516 239.156 178.578V182H210.141V178.578C210.922 178.516 211.703 178.438 212.484 178.344C213.266 178.219 213.953 178.062 214.547 177.875C215.547 177.531 216.219 177 216.562 176.281C216.938 175.562 217.125 174.625 217.125 173.469V121.203C217.125 120.172 216.891 119.109 216.422 118.016C215.984 116.891 215.328 116.047 214.453 115.484C213.859 115.109 212.969 114.797 211.781 114.547C210.594 114.297 209.516 114.141 208.547 114.078V110.656L231.844 109.438L232.547 110.188V158.562C234.859 156.5 237.453 154.109 240.328 151.391C243.234 148.672 245.562 146.422 247.312 144.641C248.344 143.578 248.906 142.781 249 142.25C249.125 141.688 249.188 141.344 249.188 141.219C249.188 140.656 248.688 140.188 247.688 139.812C246.719 139.438 245.25 139.109 243.281 138.828V135.5H267.094V138.734C263.969 139.609 261.578 140.438 259.922 141.219C258.297 141.969 256.516 142.984 254.578 144.266C253.297 145.109 252.047 146 250.828 146.938C249.641 147.844 248.266 148.984 246.703 150.359C249.766 154.797 252.594 158.906 255.188 162.688C257.781 166.469 260.5 170.469 263.344 174.688C264.312 176.156 265.516 177.141 266.953 177.641C268.391 178.141 269.828 178.453 271.266 178.578V182ZM322.172 170.797C321.078 172.578 319.75 174.266 318.188 175.859C316.656 177.422 314.906 178.766 312.938 179.891C310.844 181.078 308.719 181.969 306.562 182.562C304.438 183.188 301.984 183.5 299.203 183.5C294.578 183.5 290.578 182.844 287.203 181.531C283.859 180.219 281.094 178.453 278.906 176.234C276.719 174.016 275.078 171.406 273.984 168.406C272.922 165.375 272.391 162.094 272.391 158.562C272.391 155.375 272.969 152.328 274.125 149.422C275.312 146.484 276.984 143.875 279.141 141.594C281.266 139.375 283.938 137.578 287.156 136.203C290.406 134.828 294.031 134.141 298.031 134.141C302.406 134.141 306 134.672 308.812 135.734C311.625 136.797 313.953 138.266 315.797 140.141C317.578 141.922 318.875 144.031 319.688 146.469C320.5 148.875 320.906 151.406 320.906 154.062V157.109H289.219C289.219 163.516 290.453 168.391 292.922 171.734C295.391 175.078 299.312 176.75 304.688 176.75C307.625 176.75 310.266 175.953 312.609 174.359C314.953 172.734 316.953 170.688 318.609 168.219L322.172 170.797ZM304.266 152.984C304.266 151.109 304.172 149.188 303.984 147.219C303.797 145.25 303.469 143.641 303 142.391C302.469 140.922 301.734 139.812 300.797 139.062C299.891 138.312 298.734 137.938 297.328 137.938C294.922 137.938 293 139.156 291.562 141.594C290.125 144.031 289.344 147.891 289.219 153.172L304.266 152.984ZM361.594 179.844C359.594 180.719 357.453 181.5 355.172 182.188C352.891 182.906 350.109 183.266 346.828 183.266C341.953 183.266 338.328 182.078 335.953 179.703C333.609 177.328 332.438 173.938 332.438 169.531V140.75H324V135.688H332.625V121.484H347.859V135.688H360.984V140.75H347.953V166.438C347.953 170.094 348.453 172.688 349.453 174.219C350.484 175.75 352.312 176.516 354.938 176.516C355.781 176.516 356.953 176.453 358.453 176.328C359.953 176.203 361 176.062 361.594 175.906V179.844ZM421.969 159.172C421.969 165.766 419.766 171.422 415.359 176.141C410.953 180.859 405.375 183.219 398.625 183.219C395.625 183.219 393.188 182.906 391.312 182.281C389.438 181.688 387.891 180.953 386.672 180.078H386.297V193.25C386.297 194.344 386.531 195.297 387 196.109C387.5 196.922 388.188 197.516 389.062 197.891C389.906 198.234 391.094 198.547 392.625 198.828C394.188 199.109 395.484 199.281 396.516 199.344V202.812H362.672V199.344C363.453 199.281 364.438 199.156 365.625 198.969C366.812 198.812 367.703 198.641 368.297 198.453C369.297 198.109 369.969 197.516 370.312 196.672C370.688 195.859 370.875 194.922 370.875 193.859V145.906C370.781 144.875 370.531 143.969 370.125 143.188C369.75 142.406 369.141 141.719 368.297 141.125C367.672 140.719 366.844 140.391 365.812 140.141C364.781 139.859 363.766 139.672 362.766 139.578V136.156L385.594 134.938L386.297 135.547V140.75L386.672 140.844C388.734 138.75 391.016 137.125 393.516 135.969C396.047 134.812 398.547 134.234 401.016 134.234C407.484 134.234 412.594 136.531 416.344 141.125C420.094 145.688 421.969 151.703 421.969 159.172ZM405.141 159.359C405.141 157.016 404.969 154.781 404.625 152.656C404.281 150.5 403.672 148.578 402.797 146.891C401.953 145.203 400.828 143.859 399.422 142.859C398.047 141.859 396.359 141.359 394.359 141.359C392.328 141.359 390.703 141.719 389.484 142.438C388.266 143.125 387.203 144.031 386.297 145.156V171.734C386.484 172.359 386.844 173.172 387.375 174.172C387.906 175.141 388.438 175.922 388.969 176.516C389.75 177.359 390.641 177.984 391.641 178.391C392.641 178.797 393.734 179 394.922 179C398.016 179 400.484 177.344 402.328 174.031C404.203 170.688 405.141 165.797 405.141 159.359ZM456.609 182H427.219V178.578C428.031 178.516 428.812 178.438 429.562 178.344C430.344 178.25 431.031 178.094 431.625 177.875C432.625 177.5 433.297 176.969 433.641 176.281C434.016 175.562 434.203 174.625 434.203 173.469V121.531C434.203 120.344 433.953 119.25 433.453 118.25C432.984 117.219 432.344 116.438 431.531 115.906C430.906 115.5 429.953 115.109 428.672 114.734C427.422 114.359 426.312 114.141 425.344 114.078V110.656L448.922 109.438L449.625 110.188V172.859C449.625 174.016 449.828 174.953 450.234 175.672C450.641 176.391 451.297 176.953 452.203 177.359C452.828 177.641 453.484 177.891 454.172 178.109C454.859 178.328 455.672 178.484 456.609 178.578V182ZM514.734 181.016C513.359 181.609 511.734 182.156 509.859 182.656C507.984 183.156 506 183.406 503.906 183.406C500.062 183.406 497.234 182.844 495.422 181.719C493.609 180.562 492.375 178.922 491.719 176.797H491.438C490.375 177.859 489.344 178.766 488.344 179.516C487.375 180.266 486.328 180.906 485.203 181.438C483.734 182.125 482.312 182.625 480.938 182.938C479.594 183.281 477.703 183.453 475.266 183.453C471.641 183.453 468.547 182.391 465.984 180.266C463.422 178.109 462.141 175.266 462.141 171.734C462.141 169.703 462.422 167.984 462.984 166.578C463.547 165.141 464.344 163.875 465.375 162.781C466.312 161.781 467.391 160.953 468.609 160.297C469.859 159.641 471.219 159.031 472.688 158.469C475.5 157.438 478.875 156.375 482.812 155.281C486.75 154.156 489.625 153.156 491.438 152.281V147.781C491.438 147 491.375 145.969 491.25 144.688C491.125 143.406 490.859 142.328 490.453 141.453C490.016 140.453 489.328 139.609 488.391 138.922C487.453 138.234 486.219 137.891 484.688 137.891C483.312 137.891 482.156 138.094 481.219 138.5C480.312 138.875 479.578 139.266 479.016 139.672C479.109 140.297 479.375 141.25 479.812 142.531C480.25 143.812 480.469 145.047 480.469 146.234C480.469 146.766 480.328 147.438 480.047 148.25C479.766 149.031 479.359 149.656 478.828 150.125C478.109 150.75 477.297 151.234 476.391 151.578C475.516 151.922 474.156 152.094 472.312 152.094C469.688 152.094 467.703 151.469 466.359 150.219C465.016 148.938 464.344 147.281 464.344 145.25C464.344 143.5 465.031 141.938 466.406 140.562C467.812 139.156 469.516 138 471.516 137.094C473.484 136.156 475.75 135.438 478.312 134.938C480.875 134.406 483.25 134.141 485.438 134.141C488.469 134.141 491.25 134.328 493.781 134.703C496.312 135.047 498.594 135.781 500.625 136.906C502.562 138 504.094 139.594 505.219 141.688C506.375 143.75 506.953 146.453 506.953 149.797C506.953 153.328 506.875 157.516 506.719 162.359C506.594 167.203 506.531 170.391 506.531 171.922C506.531 173.328 506.734 174.438 507.141 175.25C507.578 176.062 508.234 176.672 509.109 177.078C509.641 177.328 510.469 177.484 511.594 177.547C512.75 177.578 513.797 177.594 514.734 177.594V181.016ZM491.438 156.594C489.688 157.188 487.953 157.875 486.234 158.656C484.516 159.406 483.109 160.203 482.016 161.047C480.859 161.922 479.953 163.047 479.297 164.422C478.641 165.766 478.312 167.359 478.312 169.203C478.312 171.641 478.859 173.406 479.953 174.5C481.078 175.594 482.453 176.141 484.078 176.141C485.797 176.141 487.203 175.797 488.297 175.109C489.422 174.391 490.406 173.516 491.25 172.484L491.438 156.594ZM545.109 183.5C540.766 183.5 536.922 182.875 533.578 181.625C530.266 180.344 527.531 178.609 525.375 176.422C523.219 174.203 521.609 171.578 520.547 168.547C519.484 165.516 518.953 162.219 518.953 158.656C518.953 155.406 519.594 152.312 520.875 149.375C522.188 146.438 523.953 143.859 526.172 141.641C528.453 139.359 531.281 137.547 534.656 136.203C538.062 134.828 541.812 134.141 545.906 134.141C551.656 134.141 556.203 135.234 559.547 137.422C562.891 139.578 564.562 142.5 564.562 146.188C564.562 148.438 563.969 150.25 562.781 151.625C561.594 153 559.547 153.688 556.641 153.688C554.297 153.688 552.328 153.125 550.734 152C549.172 150.875 548.391 149.406 548.391 147.594C548.391 146.062 548.641 144.547 549.141 143.047C549.641 141.547 549.938 140.406 550.031 139.625C549.688 139.062 549.25 138.641 548.719 138.359C548.188 138.047 547.359 137.891 546.234 137.891C544.828 137.891 543.547 138.219 542.391 138.875C541.234 139.531 540.156 140.688 539.156 142.344C538.188 143.906 537.406 146 536.812 148.625C536.25 151.25 535.969 154.406 535.969 158.094C535.969 163.656 537.266 168.141 539.859 171.547C542.484 174.953 545.609 176.656 549.234 176.656C552.703 176.656 555.453 175.891 557.484 174.359C559.547 172.797 561.375 170.594 562.969 167.75L566.484 170.188C565.516 172.094 564.359 173.844 563.016 175.438C561.672 177 560.062 178.391 558.188 179.609C556.219 180.891 554.219 181.859 552.188 182.516C550.156 183.172 547.797 183.5 545.109 183.5ZM619.734 170.797C618.641 172.578 617.312 174.266 615.75 175.859C614.219 177.422 612.469 178.766 610.5 179.891C608.406 181.078 606.281 181.969 604.125 182.562C602 183.188 599.547 183.5 596.766 183.5C592.141 183.5 588.141 182.844 584.766 181.531C581.422 180.219 578.656 178.453 576.469 176.234C574.281 174.016 572.641 171.406 571.547 168.406C570.484 165.375 569.953 162.094 569.953 158.562C569.953 155.375 570.531 152.328 571.688 149.422C572.875 146.484 574.547 143.875 576.703 141.594C578.828 139.375 581.5 137.578 584.719 136.203C587.969 134.828 591.594 134.141 595.594 134.141C599.969 134.141 603.562 134.672 606.375 135.734C609.188 136.797 611.516 138.266 613.359 140.141C615.141 141.922 616.438 144.031 617.25 146.469C618.062 148.875 618.469 151.406 618.469 154.062V157.109H586.781C586.781 163.516 588.016 168.391 590.484 171.734C592.953 175.078 596.875 176.75 602.25 176.75C605.188 176.75 607.828 175.953 610.172 174.359C612.516 172.734 614.516 170.688 616.172 168.219L619.734 170.797ZM601.828 152.984C601.828 151.109 601.734 149.188 601.547 147.219C601.359 145.25 601.031 143.641 600.562 142.391C600.031 140.922 599.297 139.812 598.359 139.062C597.453 138.312 596.297 137.938 594.891 137.938C592.484 137.938 590.562 139.156 589.125 141.594C587.688 144.031 586.906 147.891 586.781 153.172L601.828 152.984Z" fill="#582900"/>
</svg>
