<svg width="37" height="36" viewBox="0 0 37 36" fill="none" xmlns="http://www.w3.org/2000/svg">
<path fill-rule="evenodd" clip-rule="evenodd" d="M9.7441 30.0732C8.11175 30.0732 6.77646 31.4085 6.77646 33.041C6.77646 34.6733 8.11175 36.0086 9.7441 36.0086C11.3764 36.0086 12.7118 34.6733 12.7118 33.041C12.7117 31.4085 11.3764 30.0732 9.7441 30.0732ZM0.841797 0.396606V3.89772H4.403L10.8134 16.6635L8.13328 20.9519C7.86636 21.3895 7.68813 22.0024 7.68813 22.6153C7.68813 24.9592 9.31678 26.1164 11.5254 26.1164H32.3448V22.75H11.9614C11.6945 22.75 11.5163 22.5748 11.5163 22.3123C11.5163 22.2251 11.7052 21.8747 11.7052 21.8747L13.4843 19.1142H26.7492C28.0848 19.1142 29.2428 18.4142 29.8653 17.2765L36.2756 6.43645C36.3815 6.22933 36.4539 5.91078 36.4539 5.56126C36.4539 4.59795 35.6523 3.89781 34.6733 3.89781H8.32067L6.62876 0.396606H0.841797ZM27.5501 30.0732C25.9178 30.0732 24.5825 31.4085 24.5825 33.041C24.5825 34.6733 25.9178 36.0086 27.5501 36.0086C29.1825 36.0086 30.5178 34.6732 30.5178 33.0409C30.5178 31.4085 29.1825 30.0732 27.5501 30.0732Z" fill="#651FFF"/>
</svg>
