<svg width="86" height="86" viewBox="0 0 86 86" fill="none" xmlns="http://www.w3.org/2000/svg">
<g clip-path="url(#clip0_77_18)">
<path d="M4.15513 3.80225C3.21785 3.80225 2.31895 4.17458 1.65619 4.83734C0.993429 5.5001 0.621094 6.399 0.621094 7.33628C0.621094 8.27357 0.993429 9.17246 1.65619 9.83522C2.31895 10.498 3.21785 10.8703 4.15513 10.8703H10.4457C10.9594 10.8712 11.4598 11.0334 11.8764 11.3339C12.293 11.6345 12.6047 12.0583 12.7676 12.5455L24.4193 47.5077C24.9388 49.0626 25.0024 50.7307 24.6066 52.321L23.6489 56.1625C22.2388 61.7958 26.6245 67.4149 32.4274 67.4149H74.8358C75.7731 67.4149 76.672 67.0426 77.3348 66.3798C77.9976 65.717 78.3699 64.8181 78.3699 63.8809C78.3699 62.9436 77.9976 62.0447 77.3348 61.3819C76.672 60.7192 75.7731 60.3468 74.8358 60.3468H32.4274C31.0491 60.3468 30.1656 59.2159 30.5014 57.8836L31.2258 54.9928C31.3479 54.5038 31.6298 54.0696 32.0267 53.7591C32.4237 53.4485 32.913 53.2795 33.4169 53.2788H71.3018C72.0444 53.2797 72.7685 53.0466 73.3711 52.6127C73.9738 52.1788 74.4245 51.566 74.6591 50.8615L84.0774 22.5892C84.2543 22.0579 84.3025 21.4922 84.2179 20.9386C84.1333 20.3851 83.9184 19.8595 83.5909 19.4054C83.2633 18.9512 82.8326 18.5813 82.334 18.3262C81.8355 18.0712 81.2835 17.9383 80.7236 17.9384H23.7867C23.2724 17.9382 22.7712 17.7764 22.3539 17.4758C21.9366 17.1752 21.6243 16.751 21.4613 16.2633L18.111 6.21953C17.8766 5.51553 17.4264 4.90319 16.8245 4.46932C16.2225 4.03545 15.4993 3.80207 14.7572 3.80225H4.15513ZM28.8934 70.9489C27.0188 70.9489 25.221 71.6936 23.8955 73.0191C22.57 74.3446 21.8253 76.1424 21.8253 78.017C21.8253 79.8916 22.57 81.6894 23.8955 83.0149C25.221 84.3404 27.0188 85.0851 28.8934 85.0851C30.768 85.0851 32.5657 84.3404 33.8913 83.0149C35.2168 81.6894 35.9615 79.8916 35.9615 78.017C35.9615 76.1424 35.2168 74.3446 33.8913 73.0191C32.5657 71.6936 30.768 70.9489 28.8934 70.9489ZM71.3018 70.9489C69.4272 70.9489 67.6295 71.6936 66.3039 73.0191C64.9784 74.3446 64.2337 76.1424 64.2337 78.017C64.2337 79.8916 64.9784 81.6894 66.3039 83.0149C67.6295 84.3404 69.4272 85.0851 71.3018 85.0851C73.1764 85.0851 74.9742 84.3404 76.2997 83.0149C77.6252 81.6894 78.3699 79.8916 78.3699 78.017C78.3699 76.1424 77.6252 74.3446 76.2997 73.0191C74.9742 71.6936 73.1764 70.9489 71.3018 70.9489Z" fill="#582900"/>
</g>
<defs>
<clipPath id="clip0_77_18">
<rect width="84.8169" height="84.8169" fill="white" transform="translate(0.622559 0.268066)"/>
</clipPath>
</defs>
</svg>
