<svg width="39" height="39" viewBox="0 0 39 39" fill="none" xmlns="http://www.w3.org/2000/svg">
<path fill-rule="evenodd" clip-rule="evenodd" d="M19.8875 35.6307C19.4246 35.4622 18.9171 35.4622 18.4541 35.6307L14.8831 36.931C13.9792 37.2601 12.9673 36.9313 12.4295 36.1338L10.3047 32.9828C10.0293 32.5743 9.61868 32.276 9.14508 32.1403L5.49177 31.0932C4.56707 30.8282 3.94171 29.9674 3.9754 29.0061L4.10849 25.208C4.12574 24.7156 3.9689 24.2329 3.66554 23.8447L1.32541 20.8503C0.733099 20.0923 0.7331 19.0284 1.32541 18.2705L3.66554 15.276C3.9689 14.8878 4.12574 14.4051 4.10849 13.9127L3.9754 10.1146C3.94171 9.1533 4.56707 8.29256 5.49177 8.02753L9.14508 6.98043C9.61868 6.84469 10.0293 6.54637 10.3047 6.13789L12.4295 2.98696C12.9673 2.18942 13.9792 1.86065 14.8831 2.18976L18.4541 3.49C18.9171 3.65856 19.4246 3.65856 19.8875 3.49L23.4586 2.18975C24.3625 1.86065 25.3743 2.18942 25.9121 2.98696L28.0369 6.13789C28.3124 6.54637 28.723 6.84469 29.1966 6.98043L32.8499 8.02753C33.7746 8.29257 34.3999 9.1533 34.3663 10.1146L34.2332 13.9127C34.2159 14.4051 34.3728 14.8878 34.6761 15.276L37.0163 18.2705C37.6086 19.0284 37.6086 20.0923 37.0163 20.8503L34.6761 23.8447C34.3728 24.2329 34.2159 24.7156 34.2332 25.208L34.3663 29.0061C34.3999 29.9674 33.7746 30.8282 32.8499 31.0932L29.1966 32.1403C28.723 32.276 28.3124 32.5743 28.0369 32.9828L25.9121 36.1338C25.3743 36.9313 24.3625 37.2601 23.4586 36.931L19.8875 35.6307Z" fill="#00E5FF"/>
<path fill-rule="evenodd" clip-rule="evenodd" d="M26.4678 9.91996L18.3152 22.8401L13.8242 17.5729C13.1626 16.758 12.0523 16.7187 11.3453 17.4845C10.6384 18.2454 10.6021 19.5266 11.2683 20.3365C11.2683 20.3365 16.7245 26.8948 17.5085 27.5526C18.2925 28.2103 19.3892 28.0091 19.9602 27.1059L29.3092 12.2958C29.8802 11.3877 29.7034 10.1261 28.9194 9.47325C28.1354 8.81547 27.0388 9.01673 26.4678 9.91996Z" fill="white"/>
</svg>
